PathFileType	4	(X/Y/Z)	TVC_4_BWA_6_walk_RCNL2025.trc
DataRate	CameraRate	NumFrames	NumMarkers	Units	OrigDataRate	OrigDataStartFrame	OrigNumFrames
100	100	6	27	mm	100	368	420
Frame#	Time	R_Shoulder			L_Shoulder			C7			J_Notch			R_Elbow			L_Elbow			R_Wrist			L_Wrist			R_Asis			L_Asis			R_Psis			L_Psis			Sacral			Thoracic			Sternum			R_Thigh_Lateral			R_Knee_Lateral			R_Shank_Lateral			R_Ankle_Lateral			R_Heel			R_Toe			L_Thigh_Lateral			L_Knee_Lateral			L_Shank_Lateral			L_Ankle_Lateral			L_Heel			L_Toe		
		X1	Y1	Z1	X2	Y2	Z2	X3	Y3	Z3	X4	Y4	Z4	X5	Y5	Z5	X6	Y6	Z6	X7	Y7	Z7	X8	Y8	Z8	X9	Y9	Z9	X10	Y10	Z10	X11	Y11	Z11	X12	Y12	Z12	X13	Y13	Z13	X14	Y14	Z14	X15	Y15	Z15	X16	Y16	Z16	X17	Y17	Z17	X18	Y18	Z18	X19	Y19	Z19	X20	Y20	Z20	X21	Y21	Z21	X22	Y22	Z22	X23	Y23	Z23	X24	Y24	Z24	X25	Y25	Z25	X26	Y26	Z26	X27	Y27	Z27
368	3.67000000	857.515381	1290.652222	388.661011	868.393433	1318.616333	7.481542	805.671814	1370.798950	212.438934	947.103882	1250.301147	186.891251	754.620239	995.181152	447.118652	803.620361	1015.545166	-104.933846	770.740082	766.751709	457.680237	963.822784	866.320831	-104.583828	887.209595	859.536987	355.387238	818.591553	851.584290	7.320823	722.748230	894.231384	259.134674	709.854309	893.085144	168.003860	716.301270	893.658264	213.569267	725.521790	1123.925171	197.954285	982.934387	1060.115234	175.478958	970.625488	526.887634	375.308136	984.033325	440.328186	324.126251	1011.533325	270.933075	388.238647	1043.452637	60.315754	297.630035	993.687134	46.029781	254.553436	1170.321655	64.817284	266.914917	791.700256	494.372162	9.223109	763.774231	416.230286	62.029724	714.261353	302.397552	19.041315	614.966919	69.883911	103.451195	568.800537	67.896988	151.878220	746.586365	43.929611	114.875694
369	3.68000000	868.108948	1290.024292	390.292633	877.307678	1318.405029	9.008160	815.608276	1370.529297	214.396774	956.956665	1250.096558	188.135422	764.755127	995.022644	449.286987	810.391418	1015.697937	-103.263885	779.711792	766.640594	460.391571	970.762787	866.568542	-104.927860	897.626770	859.693970	356.533844	829.088867	850.262573	8.771690	732.668030	894.308167	260.643768	719.580566	892.743530	169.460571	726.124298	893.525848	215.052170	735.386658	1123.645630	199.853775	992.961914	1059.890991	176.564056	981.795105	527.676941	374.819000	994.175964	440.429474	323.999207	1020.459290	270.646881	387.263580	1045.621948	59.532715	297.315247	995.114136	46.667213	254.655426	1172.573608	60.210548	265.637451	801.130310	493.610413	10.870680	772.974792	415.856476	63.531105	720.682922	303.495392	19.941442	616.118774	73.116585	103.569733	570.236389	72.275406	152.131485	746.812622	43.798878	114.922981
370	3.69000000	878.767456	1289.664551	391.935394	886.284302	1318.447021	10.555638	825.658203	1370.586670	216.376022	966.845337	1250.148315	189.406372	775.253723	995.019592	451.483307	816.939514	1016.085388	-101.386635	789.375824	766.701843	463.002975	977.069824	866.649597	-105.304485	907.885498	860.323242	357.714020	839.743225	849.146301	10.299252	742.482422	894.674072	262.113861	729.169983	892.665710	170.885712	735.826202	893.669891	216.499786	745.184631	1123.731323	201.804886	1002.998962	1060.007812	177.714996	992.713623	528.633850	374.557220	1004.123047	440.745361	323.942993	1029.496460	270.797577	386.559448	1047.508911	58.985088	297.101135	996.353699	47.457272	254.795395	1174.519531	56.230488	264.595093	811.482361	492.961212	12.576413	783.456604	415.617065	64.992867	728.203064	304.949860	20.721706	617.717285	77.128830	103.580307	572.284851	77.753006	152.232224	747.118958	43.655849	114.989655
371	3.70000000	889.469177	1289.614990	393.574127	895.330261	1318.759521	12.116405	835.794128	1370.959717	218.352692	976.751831	1250.452881	190.697968	786.100525	995.212219	453.696289	823.309265	1016.738159	-99.319145	799.732300	766.957214	465.488174	982.756378	866.582611	-105.710316	917.960205	861.387024	358.919922	850.460999	848.316162	11.915681	752.210815	895.299316	263.568634	738.633667	892.834656	172.303757	745.422241	894.066986	217.936195	754.901917	1124.161865	203.778839	1013.006958	1060.471558	178.912903	1003.252808	529.636963	374.561035	1013.769226	441.173370	323.964722	1038.455322	271.190857	386.174286	1049.113525	58.616032	296.967468	997.421509	48.273098	254.963913	1176.155762	52.974113	263.776581	822.859924	492.405334	14.283715	795.343018	415.509064	66.331001	736.951233	306.776642	21.310575	619.924438	81.994797	103.411530	575.102478	84.417564	152.093948	747.529724	43.522762	115.075050
372	3.71000000	900.189392	1289.895874	395.195465	904.428345	1319.340942	13.687528	845.966614	1371.611816	220.306519	986.649719	1250.994019	192.002319	797.271240	995.620850	455.921082	829.539246	1017.669312	-97.089249	810.778137	767.413635	467.823853	987.842804	866.384888	-106.136700	927.850708	862.797791	360.146362	861.116516	847.828735	13.625045	761.872498	896.146118	265.037201	747.996216	893.220764	173.739502	754.934357	894.683441	219.388351	764.528625	1124.895508	205.755219	1022.939636	1061.249512	180.139526	1013.266968	530.568787	374.825714	1022.941223	441.612274	324.076355	1046.921997	271.587402	386.093903	1050.430542	58.371826	296.894135	998.315552	49.022720	255.144958	1177.490845	50.461441	263.179901	835.342041	491.915680	15.920641	808.695435	415.520294	67.457199	747.024292	308.974060	21.639404	622.920959	87.744736	102.996170	578.847168	92.288704	151.633957	748.083435	43.430408	115.170860
373	3.72000000	910.905212	1290.499634	396.787476	913.539978	1320.170044	15.267728	856.117737	1372.489014	222.222427	996.507446	1251.743774	193.308167	808.733032	996.242126	458.158539	835.658386	1018.871155	-94.732468	822.507385	768.061676	469.997284	992.352966	866.068756	-106.568275	937.582886	864.447083	361.393463	871.552307	847.704956	15.416597	771.480408	897.170532	266.547546	757.281250	893.783386	175.219116	764.380829	895.476959	220.883331	774.059021	1125.875366	207.724045	1032.749634	1062.278076	181.376770	1022.611206	531.341797	375.326477	1031.427124	441.987366	324.313171	1054.295288	271.792755	386.297455	1051.463867	58.208382	296.868164	999.030884	49.652721	255.327194	1178.542114	48.642841	262.782837	848.970398	491.467590	17.405830	823.495483	415.633148	68.290916	758.489319	311.513489	21.656025	626.884705	94.341461	102.293915	583.667419	101.294853	150.796066	748.847595	43.419678	115.259300
